<?xml version="1.0" encoding="UTF-8" standalone="no"?>
<!-- Created with Inkscape (http://www.inkscape.org/) -->

<svg
   xmlns:dc="http://purl.org/dc/elements/1.1/"
   xmlns:cc="http://creativecommons.org/ns#"
   xmlns:rdf="http://www.w3.org/1999/02/22-rdf-syntax-ns#"
   xmlns:svg="http://www.w3.org/2000/svg"
   xmlns="http://www.w3.org/2000/svg"
   xmlns:sodipodi="http://sodipodi.sourceforge.net/DTD/sodipodi-0.dtd"
   xmlns:inkscape="http://www.inkscape.org/namespaces/inkscape"
   width="500"
   height="500"
   viewBox="0 0 132.29167 132.29167"
   version="1.1"
   id="svg8"
   inkscape:version="0.92.3 (2405546, 2018-03-11)"
   sodipodi:docname="winepak.svg"
   inkscape:export-filename="/home/julian/Projects/winepak/winepak/icons/winepak/winepak.png"
   inkscape:export-xdpi="96"
   inkscape:export-ydpi="96">
  <defs
     id="defs2" />
  <sodipodi:namedview
     id="base"
     pagecolor="#ffffff"
     bordercolor="#666666"
     borderopacity="1.0"
     inkscape:pageopacity="0.0"
     inkscape:pageshadow="2"
     inkscape:zoom="1.4142136"
     inkscape:cx="73.496058"
     inkscape:cy="222.84846"
     inkscape:document-units="px"
     inkscape:current-layer="layer1"
     showgrid="false"
     units="px"
     inkscape:window-width="1920"
     inkscape:window-height="1016"
     inkscape:window-x="0"
     inkscape:window-y="27"
     inkscape:window-maximized="1"
     showguides="true"
     inkscape:guide-bbox="true" />
  <metadata
     id="metadata5">
    <rdf:RDF>
      <cc:Work
         rdf:about="">
        <dc:format>image/svg+xml</dc:format>
        <dc:type
           rdf:resource="http://purl.org/dc/dcmitype/StillImage" />
        <dc:title />
      </cc:Work>
    </rdf:RDF>
  </metadata>
  <g
     inkscape:label="Layer 1"
     inkscape:groupmode="layer"
     id="layer1"
     transform="translate(0,-164.70834)">
    <circle
       style="fill:#6c2025;fill-opacity:1;stroke:none;stroke-width:3.96875;stroke-linecap:round;stroke-linejoin:round;stroke-miterlimit:4;stroke-dasharray:none;stroke-opacity:1"
       id="path815"
       cx="66.145836"
       cy="230.85417"
       r="66.145836" />
    <path
       sodipodi:nodetypes="ccccccccccccccccccccccccc"
       inkscape:connector-curvature="0"
       id="path868"
       d="m 71.559371,283.77085 c 2.286555,0 6.598809,0 6.598809,-4.23275 l 0.796136,-61.39588 c 0,-1.83502 -0.803355,-4.47963 -1.849833,-5.52611 l -4.659712,-5.10462 c -0.784613,-1.03875 -0.793024,-1.61311 -0.793024,-2.95036 v -21.35329 c 0,-0.44864 0.420125,-0.43466 0.420125,-0.72769 v -2.19027 c 0,-0.2695 -0.352994,-0.52706 -0.352994,-0.84089 v -0.59828 c 0,-0.51609 -0.728879,-0.9132 -1.194197,-0.9132 h -8.757692 c -0.465318,0 -1.194197,0.39711 -1.194197,0.9132 v 0.59828 c 0,0.31383 -0.352994,0.57139 -0.352994,0.84089 v 2.19027 c 0,0.29303 0.420125,0.27905 0.420125,0.72769 v 21.35329 c 0,1.33725 -0.0084,1.91161 -0.793024,2.95036 l -4.659711,5.10462 c -1.046479,1.04648 -1.849834,3.69109 -1.849834,5.52611 l 0.796136,61.39588 c 0,4.23275 4.312255,4.23275 6.59881,4.23275 z"
       style="fill:#ffffff;stroke:none;stroke-width:0.26458335px;stroke-linecap:butt;stroke-linejoin:miter;stroke-opacity:1" />
    <path
       style="fill:#ffffff;stroke:none;stroke-width:2.6458334;stroke-linecap:butt;stroke-linejoin:miter;stroke-opacity:1;fill-opacity:1;stroke-miterlimit:4;stroke-dasharray:none"
       d="m 71.559371,283.77085 c 2.286555,0 6.598809,0 6.598809,-4.23275 l 0.796136,-61.39588 c 0,-1.83502 -0.803355,-4.47963 -1.849833,-5.52611 l -4.659712,-5.10462 c -0.784613,-1.03875 -0.793024,-1.61311 -0.793024,-2.95036 v -21.35329 c 0,-0.44864 0.420125,-0.43466 0.420125,-0.72769 v -2.19027 c 0,-0.2695 -0.352994,-0.52706 -0.352994,-0.84089 v -0.59828 c 0,-0.51609 -0.728879,-0.9132 -1.194197,-0.9132 h -8.757692 c -0.465318,0 -1.194197,0.39711 -1.194197,0.9132 v 0.59828 c 0,0.31383 -0.352994,0.57139 -0.352994,0.84089 v 2.19027 c 0,0.29303 0.420125,0.27905 0.420125,0.72769 v 21.35329 c 0,1.33725 -0.0084,1.91161 -0.793024,2.95036 l -4.659711,5.10462 c -1.046479,1.04648 -1.849834,3.69109 -1.849834,5.52611 l 0.796136,61.39588 c 0,4.23275 4.312255,4.23275 6.59881,4.23275 z"
       id="path870"
       inkscape:connector-curvature="0"
       sodipodi:nodetypes="ccccccccccccccccccccccccc" />
  </g>
</svg>
